<?xml version="1.0" encoding="UTF-8" standalone="no"?>
<svg
   xmlns:dc="http://purl.org/dc/elements/1.1/"
   xmlns:cc="http://creativecommons.org/ns#"
   xmlns:rdf="http://www.w3.org/1999/02/22-rdf-syntax-ns#"
   xmlns:svg="http://www.w3.org/2000/svg"
   xmlns="http://www.w3.org/2000/svg"
   xmlns:xlink="http://www.w3.org/1999/xlink"
   xmlns:sodipodi="http://sodipodi.sourceforge.net/DTD/sodipodi-0.dtd"
   xmlns:inkscape="http://www.inkscape.org/namespaces/inkscape"
   version="1.1"
   id="svg7064"
   width="1328"
   height="1354.6667"
   viewBox="0 0 1328 1354.6667"
   sodipodi:docname="faisal-portrait-25-6-2020_with_clip.svg"
   inkscape:version="1.0.1 (c497b03c, 2020-09-10)">
  <metadata
     id="metadata7070">
    <rdf:RDF>
      <cc:Work
         rdf:about="">
        <dc:format>image/svg+xml</dc:format>
        <dc:type
           rdf:resource="http://purl.org/dc/dcmitype/StillImage" />
        <dc:title></dc:title>
      </cc:Work>
    </rdf:RDF>
  </metadata>
  <defs
     id="defs7068">
    <clipPath
       clipPathUnits="userSpaceOnUse"
       id="clipPath7753">
      <path
         style="fill:none;stroke:#000000;stroke-width:1px;stroke-linecap:butt;stroke-linejoin:miter;stroke-opacity:1"
         d="M 0,1354.6667 V 1060 C 67.39659,993.66958 84.35031,952.38219 262.2662,906.23808 336.80418,886.90597 399.29167,865.64785 454,869 c 7.62829,-30.99266 20.68065,-49.62371 53,-95 -17.3845,-16.98646 -50.26565,-73.13078 -66.59521,-150.80216 -4.45522,-21.19119 -4.13401,-29.25631 -12.2505,-48.73966 -8.66224,-20.79342 -0.0838,-40.60662 -5.8556,-66.32923 -1.21275,-5.40478 -8.2356,-12.26238 -12.89814,-22.46593 -4.66255,-10.20356 -13.2148,-30.50306 1.01363,-24.29164 9.32368,4.07025 -8.18119,-24.75824 -13.46782,-39.77758 -5.28664,-15.01934 -10.3342,-30.11558 -12.72992,-40.07571 C 374.8479,342.56875 379.37368,316.42654 394.75,285 449.8915,213.80817 505.3735,188.20683 569,163 c 21.93975,-15.49296 57.32763,-12.90812 85.16164,-15.99246 28.94467,-3.20741 60.11413,8.16214 90.83836,24.49246 55.83719,23.3565 68.397,24.29865 132,63.5 21.65152,38.60303 50.23312,51.42004 47,95 -10.00062,28.32348 -1.73574,46.64477 -28.25,107.5 4.33603,-3.29122 7.20147,-5.32753 15.25,-8 7.20293,-0.7252 10.93662,3.01005 13.5,8.25 -11.25587,15.9507 -13.83032,31.60767 -14.5,49 -7.02075,14.27799 -1.95788,22.26855 -2.47178,32.79919 -0.5139,10.53064 -0.62431,19.43628 -3.18239,28.53968 C 898.69019,568.2155 896.83594,584.56251 893,597.5 c -2.14109,61.73062 -36.24645,128.42555 -58,166.5 26.57571,25.18191 46.997,48.17266 63.75,109 107.5833,34.58333 300.0451,79.77448 348.25,114 31.0834,18.4164 68.3101,84.403 81,139 v 228.6667 z"
         id="path7755"
         sodipodi:nodetypes="ccsccsssssssccscccccccssccccccc" />
    </clipPath>
  </defs>
  <sodipodi:namedview
     pagecolor="#ffffff"
     bordercolor="#666666"
     borderopacity="1"
     objecttolerance="10"
     gridtolerance="10"
     guidetolerance="10"
     inkscape:pageopacity="0"
     inkscape:pageshadow="2"
     inkscape:window-width="1487"
     inkscape:window-height="666"
     id="namedview7066"
     showgrid="false"
     inkscape:zoom="0.2"
     inkscape:cx="694"
     inkscape:cy="617.33337"
     inkscape:window-x="74"
     inkscape:window-y="23"
     inkscape:window-maximized="0"
     inkscape:current-layer="g7072"
     inkscape:document-rotation="0"
     inkscape:pagecheckerboard="true" />
  <g
     inkscape:groupmode="layer"
     id="layer2"
     inkscape:label="GREEN" />
  <g
     inkscape:groupmode="layer"
     inkscape:label="Image"
     id="g7072"
     style="display:inline">
    <image
       width="1328"
       height="1354.6667"
       preserveAspectRatio="none"
       xlink:href="file:///private/var/folders/0h/bwkm1r4x7qb9rqbjgz7t9hww0000gn/T/images/image7074..jpg"
       id="image7074"
       sodipodi:absref="/private/var/folders/0h/bwkm1r4x7qb9rqbjgz7t9hww0000gn/T/images/image7074..jpg"
       clip-path="url(#clipPath7753)"
       transform="translate(30,-60)"
       inkscape:export-filename="/Users/faisalm/try0.png"
       inkscape:export-xdpi="96"
       inkscape:export-ydpi="96" />
  </g>
</svg>
